<?xml version="1.0" encoding="UTF-8"?>
<svg version="1.1" xmlns="http://www.w3.org/2000/svg" width="1600" height="900">
<path d="M0 0 C49.15868825 -0.03425066 98.31737734 -0.06609008 147.47607422 -0.08468628 C148.20410935 -0.08496239 148.93214449 -0.08523851 149.68224129 -0.08552299 C165.50595096 -0.09150937 181.32966075 -0.09704965 197.15337074 -0.10213066 C204.91377062 -0.10462524 212.67417048 -0.10721836 220.43457031 -0.10986328 C221.59292487 -0.11025556 221.59292487 -0.11025556 222.77468053 -0.11065576 C247.78678618 -0.11917227 272.79888277 -0.13419028 297.81098294 -0.15259444 C323.52287475 -0.17147907 349.23476154 -0.1837754 374.94666016 -0.18782998 C378.58166831 -0.18840626 382.21667644 -0.18905753 385.85168457 -0.18975449 C386.56707775 -0.18988933 387.28247093 -0.19002418 388.01954269 -0.19016311 C399.51656625 -0.19252281 411.01357426 -0.20178884 422.51059149 -0.21366407 C434.08037524 -0.22546611 445.65013986 -0.22976763 457.21992981 -0.22700275 C463.48405405 -0.22572309 469.74813285 -0.22767072 476.01224899 -0.23841095 C481.75435581 -0.24818398 487.49638687 -0.24860867 493.23849726 -0.24179779 C495.3087563 -0.2409567 497.37902017 -0.24345924 499.44926977 -0.24976636 C526.14716775 -0.32633091 548.18354906 3.24898467 568.3515625 22.2109375 C580.80908808 35.09655674 587.11147171 51.74900638 587.13142776 69.6106863 C587.13526891 70.90709622 587.13911005 72.20350613 587.1430676 73.5392012 C587.14228749 74.9657043 587.14140873 76.39220734 587.14044189 77.81871033 C587.14302766 79.34365033 587.14604141 80.86858965 587.1494453 82.39352804 C587.15749397 86.57681008 587.15930368 90.76007493 587.16004276 94.94336379 C587.16189708 99.45824938 587.1694464 103.97312613 587.17617798 108.48800659 C587.18974751 118.35818509 587.19578411 128.22835952 587.20018864 138.09854579 C587.20295386 144.26591436 587.20719177 150.43328137 587.21169281 156.60064888 C587.22388456 173.68813319 587.23418349 190.77561625 587.2375679 207.86310482 C587.23778747 208.95631775 587.23800703 210.04953069 587.23823325 211.17587129 C587.23845153 212.27165294 587.23866981 213.3674346 587.2388947 214.49642175 C587.23933816 216.7167714 587.23978472 218.93712105 587.24023438 221.1574707 C587.2404558 222.25883331 587.24067723 223.36019591 587.24090537 224.49493314 C587.24485067 242.32807773 587.26229692 260.1611814 587.2855939 277.99431019 C587.30933891 296.31889178 587.32177122 314.64345285 587.32293582 332.96805006 C587.3238509 343.25025224 587.32956102 353.5324011 587.34775543 363.81458855 C587.36319909 372.57293291 587.36825186 381.33120749 587.36001733 390.08956289 C587.35612565 394.55330865 587.35696741 399.01691406 587.37107468 403.48064232 C587.3839033 407.57750129 587.38253846 411.67411576 587.37048396 415.77097482 C587.36854233 417.24277909 587.37153329 418.71460123 587.38032833 420.1863805 C587.45242274 433.08081983 586.38445103 446.5422845 580.8125 458.375 C580.51424316 459.03290527 580.21598633 459.69081055 579.90869141 460.36865234 C577.10186899 466.2886808 573.37702476 471.14236076 569 476 C568.22785156 476.98742187 567.45570313 477.97484375 566.66015625 478.9921875 C564.05053686 482.12829165 561.01171697 484.35566869 557.5625 486.5 C556.95631836 486.88164307 556.35013672 487.26328613 555.72558594 487.65649414 C536.06385049 499.70044787 516.39313891 500.15314302 494.02537537 500.12698364 C491.88066028 500.12813668 489.7359454 500.12972543 487.59123093 500.13171089 C481.71392441 500.13587879 475.83663415 500.13382501 469.95932758 500.13072467 C463.61518232 500.12846058 457.27103985 500.13195513 450.92689514 500.13470459 C439.22491481 500.13889302 427.52294026 500.13853201 415.82095965 500.13579312 C405.01528849 500.13327642 394.20961922 500.13262141 383.40394783 500.13381577 C382.32832596 500.13393034 382.32832596 500.13393034 381.23097436 500.13404724 C378.32012261 500.13435857 375.40927087 500.13467697 372.49841913 500.135007 C345.20905305 500.13806416 317.91969028 500.13529492 290.63032471 500.1299101 C266.37358385 500.12516012 242.11684824 500.12559316 217.86010742 500.13037109 C190.60669549 500.13572135 163.35328646 500.13785191 136.09987408 500.13475883 C133.19715281 500.13443811 130.29443155 500.13412527 127.39171028 500.13381577 C126.67698468 500.13373669 125.96225908 500.13365761 125.22587513 500.13357614 C114.41949272 500.13243731 103.6131124 500.13377137 92.80673027 500.13629532 C80.52995269 500.1391484 68.25318289 500.13835598 55.97640573 500.13301457 C49.7078781 500.13037752 43.43936115 500.12937264 37.17083359 500.13266373 C31.44163425 500.13562633 25.71245558 500.1340345 19.98325814 500.12868617 C17.90213866 500.12756189 15.82101747 500.12815342 13.73989909 500.13056196 C10.92829636 500.13356832 8.11676604 500.13051896 5.3051672 500.12584114 C4.48251461 500.12818231 3.65986202 500.13052347 2.81228057 500.13293558 C-2.77169899 500.11415051 -2.77169899 500.11415051 -5 499 C-5 498.34 -5 497.68 -5 497 C-3.13671875 495.37890625 -3.13671875 495.37890625 -0.6875 493.5625 C2.63908504 491.09023023 2.63908504 491.09023023 5.66796875 488.27734375 C7 487 7 487 9 487 C9.226875 486.42636719 9.45375 485.85273437 9.6875 485.26171875 C11.36282808 482.37476947 13.37004834 480.863414 16 478.8125 C19.77551032 475.80880624 23.44060995 472.75707006 27 469.5 C31.41585827 465.47273726 35.99266553 461.68646422 40.65234375 457.9453125 C42.96072797 456.10675749 42.96072797 456.10675749 44.69140625 454.2421875 C46 453 46 453 48 453 C48 452.34 48 451.68 48 451 C49.43359375 449.5546875 49.43359375 449.5546875 51.4375 447.875 C54.4344322 445.33023652 57.39377455 442.75922874 60.3125 440.125 C64.5050696 436.38626525 68.84320082 432.85141229 73.2109375 429.3203125 C76.92992921 426.22636141 80.47260466 422.95764204 84.00390625 419.65234375 C86 418 86 418 88 418 C88 417.34 88 416.68 88 416 C89.36328125 414.58984375 89.36328125 414.58984375 91.3125 412.9375 C92.04597656 412.31359375 92.77945313 411.6896875 93.53515625 411.046875 C98.52358032 406.90434852 103.54130272 402.7972561 108.58300781 398.71972656 C110.18474016 397.42262411 111.78020667 396.11811933 113.375 394.8125 C114.33148437 394.03519531 115.28796875 393.25789063 116.2734375 392.45703125 C118.30665055 390.62480917 119.9218347 388.97157521 121.625 386.875 C123.5781726 384.51063316 125.14531775 382.90798438 127.625 381.1875 C135.97586574 375.15544876 143.6766838 368.43964332 151.25 361.46875 C153.93737634 359.05621896 156.68965444 356.7674379 159.5 354.5 C164.2277786 350.68270658 168.73640037 346.67741552 173.19921875 342.5546875 C180.17162302 336.19492126 187.3878923 330.17322097 194.73242188 324.25 C198.88029018 320.86829845 202.76565888 317.36754351 206.49072266 313.52319336 C208.52166567 311.47352441 210.65303732 309.67640191 213 308 C213.66 308 214.32 308 215 308 C215.37318359 307.10667969 215.37318359 307.10667969 215.75390625 306.1953125 C217.19018039 303.66494866 218.58436092 302.5685793 220.9375 300.875 C225.68168445 297.32067532 230.01246489 293.42715333 234.37109375 289.4140625 C237.22371231 286.79457027 240.12649098 284.24185976 243.05078125 281.703125 C245.1562308 279.86349373 247.23340646 277.99434428 249.3125 276.125 C253.63516396 272.26843198 258.10485166 268.61219204 262.6171875 264.98046875 C264.90514529 263.14402218 264.90514529 263.14402218 266.47265625 261.51171875 C269.53307848 258.48260518 273.10068308 255.98194216 276.50390625 253.3515625 C279.05046506 250.95245702 280.01106047 249.31206967 281 246 C279.35 245.34 277.7 244.68 276 244 C276 243.34 276 242.68 276 242 C274.9171875 241.6596875 274.9171875 241.6596875 273.8125 241.3125 C271.12649434 240.05903069 269.6016942 238.78270153 267.6015625 236.640625 C263.93798113 232.88768799 259.91382304 229.48824228 256 226 C255.34 226.33 254.68 226.66 254 227 C253.79375 226.2575 253.5875 225.515 253.375 224.75 C251.60854521 221.21709041 249.29070291 220.07457358 246 218 C246 217.34 246 216.68 246 216 C245.01 215.67 244.02 215.34 243 215 C241.3089015 213.35812868 239.64643801 211.68665273 238 210 C235.87262339 208.09872464 233.68840675 206.2679423 231.5 204.4375 C230.94441406 203.96892578 230.38882813 203.50035156 229.81640625 203.01757812 C227.27708418 200.88156015 224.73429923 198.7975103 222.09375 196.78515625 C221.4028125 196.19605469 220.711875 195.60695313 220 195 C220 194.34 220 193.68 220 193 C218.68 192.67 217.36 192.34 216 192 C216 191.34 216 190.68 216 190 C215.43796875 189.75636719 214.8759375 189.51273438 214.296875 189.26171875 C211.55980215 187.75819064 209.54204059 185.93300252 207.25 183.8125 C206.37085938 183.00683594 205.49171875 182.20117188 204.5859375 181.37109375 C203.73257813 180.58863281 202.87921875 179.80617188 202 179 C199.98188859 177.21305408 197.95132759 175.44142481 195.91796875 173.671875 C194.64523154 172.56244216 193.37693927 171.44788821 192.11328125 170.328125 C188.28806599 166.94517601 184.39499976 163.665133 180.4375 160.4375 C179.51195312 159.68210937 178.58640625 158.92671875 177.6328125 158.1484375 C176.00366352 156.81901326 174.37363156 155.49066926 172.7421875 154.1640625 C171.12344283 152.82056996 169.55500391 151.41678134 168 150 C168 149.34 168 148.68 168 148 C167.41138184 147.72905518 166.82276367 147.45811035 166.21630859 147.17895508 C164.02667303 146.01418859 162.39371297 144.77325224 160.5390625 143.13671875 C159.90226563 142.57919922 159.26546875 142.02167969 158.609375 141.44726562 C157.62710938 140.57618164 157.62710938 140.57618164 156.625 139.6875 C155.32598764 138.54504192 154.02651424 137.40310783 152.7265625 136.26171875 C152.09830566 135.7090332 151.47004883 135.15634766 150.82275391 134.58691406 C148.25048182 132.34745939 145.62673444 130.17526446 143 128 C138.23801398 123.93773438 133.60616796 119.7373582 129 115.5 C122.25828731 109.30445933 115.48406844 103.3299531 108.22265625 97.75 C104.69260627 94.97062849 101.3547116 91.98642988 98 89 C96.70912847 87.87408771 95.41745257 86.74909703 94.125 85.625 C88.53247617 80.73154165 83.01489625 75.75293844 77.52734375 70.7421875 C72.36955904 66.05031996 67.08220199 61.57933612 61.6640625 57.19140625 C57.67271669 53.90820244 53.84181953 50.45553055 50 47 C48.54452589 45.70511235 47.08631146 44.41329644 45.625 43.125 C44.99851562 42.57070312 44.37203125 42.01640625 43.7265625 41.4453125 C41.85146036 39.82243808 41.85146036 39.82243808 39 38 C39 37.34 39 36.68 39 36 C38.27941406 35.773125 37.55882812 35.54625 36.81640625 35.3125 C33.41100751 33.72551807 31.50512518 31.73033404 28.9375 29 C26.07447589 25.96492976 23.80586108 23.7041169 20 22 C18.28641357 20.38161281 16.6292274 18.70328319 15 17 C9.99664831 11.78145039 4.92333225 7.15893541 -1 3 C-0.67 2.01 -0.34 1.02 0 0 Z M362 194 C361.34 194.60457031 360.68 195.20914063 360 195.83203125 C358.60489761 197.15931617 357.29009422 198.57043613 356 200 C356 200.66 356 201.32 356 202 C355.34 202 354.68 202 354 202 C352.59442696 204.03823012 351.31460719 206.05776906 350.0625 208.1875 C349.71509766 208.76564453 349.36769531 209.34378906 349.00976562 209.93945312 C347.99999244 211.62240843 346.99985615 213.31113408 346 215 C345.46503906 215.82757813 344.93007812 216.65515625 344.37890625 217.5078125 C340.02073778 225.38461556 338.33287338 235.07030972 338 244 C337.96003906 244.84691406 337.92007812 245.69382812 337.87890625 246.56640625 C337.3439775 268.183821 343.93564992 287.02580186 358.72314453 302.8190918 C373.12811788 317.55717091 392.20258453 325.87110123 412.6875 326.3125 C431.95894912 326.15481827 449.75000745 320.31475988 464 307 C464.83917969 306.25105469 465.67835938 305.50210938 466.54296875 304.73046875 C479.62766494 292.47717534 488.64521783 274.91239313 489.30078125 256.80078125 C489.32010864 254.97145209 489.32356685 253.14189778 489.3125 251.3125 C489.30758545 250.34715332 489.3026709 249.38180664 489.29760742 248.38720703 C488.95643925 227.44472986 480.92862844 209.98506309 466.4375 195.0625 C464.97455202 193.69082781 463.49605927 192.33548046 462 191 C461.35160156 190.38769531 460.70320313 189.77539062 460.03515625 189.14453125 C445.95660691 176.90348931 425.21211404 172.84533982 407.07861328 173.84472656 C389.79566322 175.13577146 374.5765138 182.18768409 362 194 Z " fill="#313131" transform="translate(769,202)"/>
<path d="M0 0 C1.98 0.99 1.98 0.99 4 2 C4 6.33178252 3.88092425 7.02304494 1 10 C-0.98320018 11.03291676 -2.98347806 12.0337499 -5 13 C-6.01801357 13.98165594 -7.0246803 14.97591432 -8 16 C-8.66 16 -9.32 16 -10 16 C-10 16.66 -10 17.32 -10 18 C-11.38997745 19.20303905 -12.84048901 20.33635336 -14.3125 21.4375 C-18.38311004 24.59841218 -22.02645107 27.93585823 -25.625 31.625 C-29.16902831 35.23832495 -32.65416733 38.42023243 -36.76953125 41.34765625 C-44.12254184 46.79480771 -51.05751745 52.88270191 -57.40625 59.46484375 C-59.70286387 61.67702328 -62.25467111 63.47038524 -64.83203125 65.33984375 C-69.11777462 68.62171931 -73.01622728 72.36320103 -77 76 C-87.00304368 84.90514864 -97.20916272 93.58792386 -107.59765625 102.0390625 C-111.63013216 105.33061194 -115.61964576 108.60070436 -119.27734375 112.30859375 C-122.29974861 115.29630817 -125.44835011 118.06490853 -128.6875 120.8125 C-129.55858398 121.56563477 -129.55858398 121.56563477 -130.44726562 122.33398438 C-134.76169218 126 -134.76169218 126 -137 126 C-137 126.66 -137 127.32 -137 128 C-138.53195272 129.37212301 -140.12921081 130.6715446 -141.75 131.9375 C-145.9858479 135.32074775 -150.03854856 138.80100363 -154 142.5 C-158.65754281 146.83448931 -163.47124711 150.9037637 -168.4296875 154.89453125 C-170.78936484 156.82745843 -173.05651151 158.82296619 -175.3125 160.875 C-179.1088373 164.30196394 -183.08115758 167.43773678 -187.125 170.5625 C-192.12017123 174.42261637 -196.62848671 178.42978156 -201 183 C-203.37967645 184.18983823 -204.84252601 184.13341924 -207.49868774 184.14717102 C-208.91956947 184.15790398 -208.91956947 184.15790398 -210.36915588 184.16885376 C-211.93366737 184.17288712 -211.93366737 184.17288712 -213.52978516 184.17700195 C-214.62603714 184.18357315 -215.72228912 184.19014435 -216.85176086 184.19691467 C-220.49752875 184.21669846 -224.14325513 184.22832775 -227.7890625 184.23828125 C-229.03600262 184.24235678 -230.28294273 184.2464323 -231.56766891 184.25063133 C-237.49758494 184.26936688 -243.42748783 184.28391933 -249.35742629 184.2922433 C-256.16903548 184.30196492 -262.98031529 184.32814107 -269.79180872 184.36874419 C-275.71416859 184.40281407 -281.63645018 184.41441121 -287.55891037 184.41844749 C-290.06326896 184.42329011 -292.56762465 184.43483686 -295.07191849 184.45348549 C-320.76970282 184.63279771 -340.06353644 180.8264468 -359.625 163 C-365.0501622 157.38977841 -368.54700326 150.65963481 -372.08105469 143.76806641 C-372.80806422 142.3692877 -373.58667908 140.99734225 -374.3828125 139.63671875 C-377.56337089 133.75857565 -377.81429483 127.29309524 -378.31811523 120.73706055 C-378.65836013 116.41634449 -379.20026454 112.99614731 -381 109 C-381.1875 105.75 -381.1875 105.75 -381 103 C-380.505 102.505 -380.505 102.505 -380 102 C-379.08812028 96.22952063 -378.84029483 90.58786351 -378.81054688 84.75415039 C-378.79810692 83.42344513 -378.79810692 83.42344513 -378.78541565 82.06585693 C-378.76811958 80.15455392 -378.75292511 78.24323093 -378.73963928 76.33189583 C-378.71849119 73.31068205 -378.69148478 70.28956998 -378.66296387 67.26841736 C-378.59338564 59.77449666 -378.53355606 52.28050453 -378.47393799 44.78649902 C-378.42309604 38.43492982 -378.36834229 32.08341912 -378.30812073 25.73193169 C-378.28148345 22.74880054 -378.26071731 19.765664 -378.2401123 16.78248596 C-378.2235209 14.96835055 -378.2066501 13.15421766 -378.18945312 11.34008789 C-378.18526871 10.50533432 -378.18108429 9.67058075 -378.17677307 8.81053162 C-378.11385977 3.11385977 -378.11385977 3.11385977 -377 2 C-375.56799434 1.90635604 -374.13136322 1.88255671 -372.69630432 1.88647461 C-371.29013367 1.88658366 -371.29013367 1.88658366 -369.85555553 1.88669491 C-368.28845569 1.89444108 -368.28845569 1.89444108 -366.68969727 1.90234375 C-365.58575528 1.90378419 -364.4818133 1.90522463 -363.34441853 1.90670872 C-360.89764664 1.91051571 -358.45087761 1.91664655 -356.00411606 1.92471504 C-351.9721502 1.93780603 -347.9402152 1.94480684 -343.90823364 1.94993591 C-337.95699463 1.95807741 -332.00576624 1.96888813 -326.05453491 1.98141479 C-309.62751704 2.01532047 -293.20048753 2.02941307 -276.7734375 2.03515625 C-275.89348641 2.0355066 -275.01353532 2.03585696 -274.10691905 2.03621793 C-241.85448815 2.04784395 -209.60347237 1.9220823 -177.3515625 1.74609375 C-175.06152539 1.73373251 -172.77148823 1.72137925 -170.48145103 1.70903397 C-148.94470363 1.59246763 -127.40800528 1.46915133 -105.87138939 1.33031029 C-97.26039566 1.27501478 -88.64938355 1.22365486 -80.03835011 1.17494446 C-75.03547829 1.14640366 -70.03264157 1.11575652 -65.02981949 1.07946587 C-43.32253364 0.92280906 -21.68917155 0.98234002 0 2 C0 1.34 0 0.68 0 0 Z " fill="#313131" transform="translate(746,517)"/>
<path d="M0 0 C1.07801188 -0.00282738 2.15602375 -0.00565475 3.26670265 -0.00856781 C8.94823057 -0.02341181 14.62973397 -0.03273991 20.3112793 -0.03710938 C26.15956533 -0.04263851 32.00762377 -0.06680099 37.85583782 -0.09508133 C42.38117651 -0.11369941 46.90645952 -0.1189124 51.43183327 -0.12044525 C53.58915289 -0.12346339 55.74647173 -0.13146344 57.90375328 -0.14463043 C60.9108692 -0.16170777 63.91741566 -0.15980891 66.92456055 -0.15332031 C68.24700272 -0.16714249 68.24700272 -0.16714249 69.59616089 -0.1812439 C78.09997356 -0.12384076 83.2053908 2.3545079 89.42578125 8.328125 C90.46970798 9.31546812 91.51398415 10.30244189 92.55859375 11.2890625 C93.07196289 11.77987305 93.58533203 12.27068359 94.11425781 12.77636719 C99.1400662 17.55988905 104.24281065 22.2325164 109.80078125 26.390625 C114.91772915 30.26710068 119.5026436 34.69460837 124.12182617 39.14135742 C127.14289171 42.02155462 130.12855744 44.64314298 133.57421875 47.0078125 C134.57710937 47.73226562 135.58 48.45671875 136.61328125 49.203125 C136.61328125 49.863125 136.61328125 50.523125 136.61328125 51.203125 C137.185625 51.45578125 137.75796875 51.7084375 138.34765625 51.96875 C140.89433787 53.3562524 142.73882422 54.98150661 144.86328125 56.953125 C147.79065573 59.61525138 150.73397586 62.11445638 153.92578125 64.453125 C156.75154771 66.52387331 159.17006578 68.68355905 161.61328125 71.203125 C162.79344164 72.25309983 163.98207336 73.29357816 165.17578125 74.328125 C168.47838921 77.19038523 171.70954429 80.11918699 174.92578125 83.078125 C179.3903816 87.15023301 183.98175594 91.00635986 188.6796875 94.8046875 C194.41646822 99.49494498 200.00593467 104.35955033 205.61328125 109.203125 C206.25410645 109.75613281 206.89493164 110.30914062 207.55517578 110.87890625 C219.73882631 121.3971657 219.73882631 121.3971657 225.61328125 126.703125 C228.10609284 128.9382211 230.61351632 130.98106602 233.36328125 132.890625 C236.49885444 135.12170592 238.91385583 137.47198826 241.61328125 140.203125 C243.54162315 142.00645715 245.4754674 143.79904593 247.42578125 145.578125 C247.95204102 146.05926758 248.47830078 146.54041016 249.02050781 147.03613281 C253.16741372 150.81780664 257.37158052 154.52816507 261.61328125 158.203125 C263.0092691 159.43211617 264.40510185 160.66128355 265.80078125 161.890625 C271.10083839 166.76807399 271.10083839 166.76807399 277.30078125 170.265625 C279.61328125 171.203125 279.61328125 171.203125 281.61328125 174.203125 C281.28328125 175.523125 280.95328125 176.843125 280.61328125 178.203125 C155.54328125 178.203125 30.47328125 178.203125 -98.38671875 178.203125 C-100.03916099 174.0720194 -100.63677554 172.56800981 -100.60945129 168.4753418 C-100.60745728 167.09225578 -100.60745728 167.09225578 -100.60542297 165.68122864 C-100.59359482 164.68169662 -100.58176666 163.68216461 -100.56958008 162.65234375 C-100.56493744 161.58984909 -100.5602948 160.52735443 -100.55551147 159.43266296 C-100.53712694 155.91849372 -100.50358426 152.40466708 -100.46875 148.890625 C-100.45018154 146.44027049 -100.43209682 143.98991228 -100.41447449 141.53955078 C-100.37495538 136.39818845 -100.32759853 131.25696869 -100.27514648 126.11572266 C-100.20909596 119.55372413 -100.16530254 112.99179705 -100.12788868 106.42958069 C-100.09599589 101.3642912 -100.05060114 96.29918766 -100.00140953 91.23403931 C-99.97981349 88.81657477 -99.9626804 86.39906583 -99.95023537 83.98153687 C-99.81440021 59.97520046 -96.42514472 38.69688289 -79.13671875 20.453125 C-74.35813222 15.90247787 -69.09920724 12.46984746 -63.38671875 9.203125 C-62.731875 8.81382812 -62.07703125 8.42453125 -61.40234375 8.0234375 C-52.75993469 3.25903251 -43.15958759 1.0419353 -33.37182617 0.60253906 C-32.60126231 0.56423603 -31.83069845 0.525933 -31.03678417 0.48646927 C-20.69687171 0.02022557 -10.34841408 0.01855831 0 0 Z " fill="#303030" transform="translate(467.38671875,201.796875)"/>
<path d="M0 0 C1.98 0.99 1.98 0.99 4 2 C4 6 4 6 2.8125 8.1875 C0.60050904 10.39949096 -0.93795671 10.66896829 -4 11 C-2.71937515 9.2925002 -1.38232443 7.62626404 0 6 C0.66 6 1.32 6 2 6 C2 5.34 2 4.68 2 4 C-123.07 4 -248.14 4 -377 4 C-377 43.27 -377 82.54 -377 123 C-377.33 123 -377.66 123 -378 123 C-378.04898437 122.40832031 -378.09796875 121.81664062 -378.1484375 121.20703125 C-378.5720819 116.72954816 -379.30578199 113.1790711 -381 109 C-381.1875 105.75 -381.1875 105.75 -381 103 C-380.505 102.505 -380.505 102.505 -380 102 C-379.08812028 96.22952063 -378.84029483 90.58786351 -378.81054688 84.75415039 C-378.79810692 83.42344513 -378.79810692 83.42344513 -378.78541565 82.06585693 C-378.76811958 80.15455392 -378.75292511 78.24323093 -378.73963928 76.33189583 C-378.71849119 73.31068205 -378.69148478 70.28956998 -378.66296387 67.26841736 C-378.59338564 59.77449666 -378.53355606 52.28050453 -378.47393799 44.78649902 C-378.42309604 38.43492982 -378.36834229 32.08341912 -378.30812073 25.73193169 C-378.28148345 22.74880054 -378.26071731 19.765664 -378.2401123 16.78248596 C-378.2235209 14.96835055 -378.2066501 13.15421766 -378.18945312 11.34008789 C-378.18526871 10.50533432 -378.18108429 9.67058075 -378.17677307 8.81053162 C-378.11385977 3.11385977 -378.11385977 3.11385977 -377 2 C-375.56799434 1.90635604 -374.13136322 1.88255671 -372.69630432 1.88647461 C-371.29013367 1.88658366 -371.29013367 1.88658366 -369.85555553 1.88669491 C-368.28845569 1.89444108 -368.28845569 1.89444108 -366.68969727 1.90234375 C-365.58575528 1.90378419 -364.4818133 1.90522463 -363.34441853 1.90670872 C-360.89764664 1.91051571 -358.45087761 1.91664655 -356.00411606 1.92471504 C-351.9721502 1.93780603 -347.9402152 1.94480684 -343.90823364 1.94993591 C-337.95699463 1.95807741 -332.00576624 1.96888813 -326.05453491 1.98141479 C-309.62751704 2.01532047 -293.20048753 2.02941307 -276.7734375 2.03515625 C-275.89348641 2.0355066 -275.01353532 2.03585696 -274.10691905 2.03621793 C-241.85448815 2.04784395 -209.60347237 1.9220823 -177.3515625 1.74609375 C-175.06152539 1.73373251 -172.77148823 1.72137925 -170.48145103 1.70903397 C-148.94470363 1.59246763 -127.40800528 1.46915133 -105.87138939 1.33031029 C-97.26039566 1.27501478 -88.64938355 1.22365486 -80.03835011 1.17494446 C-75.03547829 1.14640366 -70.03264157 1.11575652 -65.02981949 1.07946587 C-43.32253364 0.92280906 -21.68917155 0.98234002 0 2 C0 1.34 0 0.68 0 0 Z " fill="#9C9C9C" transform="translate(746,517)"/>
<path d="M0 0 C11.19537501 3.87383218 18.22276244 16.08349545 23.25 26.1875 C28.5345726 38.41209373 29.4469445 50.60584172 29.38095093 63.78074646 C29.38441705 65.31259351 29.38918796 66.84443807 29.39513266 68.37627751 C29.40754154 72.54155077 29.40151894 76.7066152 29.39217401 80.87188876 C29.38534187 85.38118943 29.39588527 89.89045602 29.40411377 94.39974976 C29.41740948 103.21633263 29.41459189 112.03283861 29.40587585 120.84942441 C29.39908283 128.0195116 29.39818956 135.18957734 29.4014473 142.35966682 C29.401907 143.38267393 29.40236669 144.40568103 29.40284032 145.45968835 C29.40379956 147.53834065 29.40477221 149.61699294 29.4057581 151.69564522 C29.41429991 171.15869318 29.40449708 190.62169865 29.388357 210.08473963 C29.37495694 226.75939522 29.3772817 243.43398813 29.39111328 260.10864258 C29.40719395 279.50357645 29.41347394 298.89847314 29.40427649 318.29341274 C29.40332091 320.36444763 29.4023778 322.43548252 29.4014473 324.50651741 C29.40098447 325.52532611 29.40052164 326.54413481 29.40004479 327.5938165 C29.39746221 334.74892368 29.40181011 341.90400714 29.40888596 349.05911064 C29.41732892 357.78799326 29.41496237 366.51679502 29.39904372 375.24566846 C29.39119819 379.69326031 29.38800539 384.1407177 29.39799118 388.58830833 C29.40701647 392.6700567 29.40187826 396.75154762 29.38605852 400.83327306 C29.3827435 402.29944974 29.38432955 403.76564877 29.39168589 405.23181074 C29.45126926 418.10818213 28.37523201 431.55964734 22.8125 443.375 C22.51641846 444.02927979 22.22033691 444.68355957 21.9152832 445.35766602 C19.06719484 451.37161384 15.13630572 458.93184714 9 462 C10.44924293 458.8587838 12.23704231 456.26114105 14.3125 453.5 C18.19564129 448.01032001 20.77856627 442.3295646 23 436 C23.2489013 435.35472947 23.49780259 434.70945894 23.75424635 434.04463476 C26.48458042 426.22833281 26.42014186 418.53830354 26.38095093 410.36927795 C26.38441189 408.79280999 26.3891794 407.21634446 26.39513266 405.63988394 C26.40761216 401.32824649 26.40148621 397.01680923 26.39217401 392.70517123 C26.38537127 388.04727449 26.39587085 383.38941157 26.40411377 378.73152161 C26.41744054 369.61447034 26.41457797 360.49749326 26.40587585 351.38043911 C26.39909514 343.96896146 26.39818426 336.55750457 26.4014473 329.1460247 C26.401907 328.09036756 26.40236669 327.03471042 26.40284032 325.94706367 C26.40379952 323.80236804 26.40477216 321.65767243 26.4057581 319.51297682 C26.41430901 299.41058949 26.40448276 279.30824323 26.388357 259.20586263 C26.37495604 241.96672965 26.37728067 224.72765728 26.39111328 207.48852539 C26.40717772 187.45862643 26.41348301 167.42876346 26.40427649 147.39885896 C26.40332087 145.26183634 26.40237775 143.1248137 26.4014473 140.98779106 C26.40098447 139.93639865 26.40052164 138.88500624 26.40004479 137.80175345 C26.39745735 130.40190034 26.40182064 123.0020701 26.40888596 115.60222054 C26.41731083 106.58029226 26.41500011 97.55844227 26.39904372 88.53652293 C26.39117403 83.93566651 26.38804717 79.33494047 26.39799118 74.73408508 C26.40696568 70.51793723 26.40196006 66.30203996 26.38605852 62.08591466 C26.38272233 60.56516905 26.38437849 59.04440204 26.39168589 57.52367032 C26.44447262 45.62014654 24.75467102 35.49519088 19.25 24.875 C18.90001953 24.19123291 18.55003906 23.50746582 18.18945312 22.80297852 C13.86831343 14.57386416 8.70052276 8.21181373 1.50390625 2.3125 C1.00761719 1.879375 0.51132813 1.44625 0 1 C0 0.67 0 0.34 0 0 Z " fill="#D8D8D8" transform="translate(1327,217)"/>
<path d="M0 0 C0.33 0 0.66 0 1 0 C1 37.62 1 75.24 1 114 C125.41 113.67 249.82 113.34 378 113 C375.03 110.36 372.06 107.72 369 105 C373.4893229 105 375.97099461 107.16054823 379.375 109.9375 C379.91125 110.618125 380.4475 111.29875 381 112 C380.67 113.32 380.34 114.64 380 116 C254.93 116 129.86 116 1 116 C-0.66912362 111.82719095 -1.24943957 110.32551426 -1.20254517 106.18473816 C-1.19688034 105.24389374 -1.19121552 104.30304932 -1.18537903 103.33369446 C-1.16056709 101.80376106 -1.16056709 101.80376106 -1.13525391 100.24291992 C-1.12579239 99.15954346 -1.11633087 98.07616699 -1.10658264 96.95996094 C-1.07293702 93.38329068 -1.02481214 89.80696934 -0.9765625 86.23046875 C-0.95039211 83.74897673 -0.92512537 81.26747503 -0.90072632 78.78596497 C-0.83410757 72.25761658 -0.75520733 65.72947201 -0.67376709 59.20129395 C-0.59171018 52.53858737 -0.52345506 45.87572935 -0.453125 39.21289062 C-0.31344048 26.14178504 -0.16117736 13.07085732 0 0 Z " fill="#BCBCBC" transform="translate(368,264)"/>
<path d="M0 0 C49.15868825 -0.03425066 98.31737734 -0.06609008 147.47607422 -0.08468628 C148.20410935 -0.08496239 148.93214449 -0.08523851 149.68224129 -0.08552299 C165.50595096 -0.09150937 181.32966075 -0.09704965 197.15337074 -0.10213066 C204.91377062 -0.10462524 212.67417048 -0.10721836 220.43457031 -0.10986328 C221.59292487 -0.11025556 221.59292487 -0.11025556 222.77468053 -0.11065576 C247.78678618 -0.11917227 272.79888277 -0.13419028 297.81098294 -0.15259444 C323.52287475 -0.17147907 349.23476154 -0.1837754 374.94666016 -0.18782998 C378.58166831 -0.18840626 382.21667644 -0.18905753 385.85168457 -0.18975449 C386.56707775 -0.18988933 387.28247093 -0.19002418 388.01954269 -0.19016311 C399.51656625 -0.19252281 411.01357426 -0.20178884 422.51059149 -0.21366407 C434.08037524 -0.22546611 445.65013986 -0.22976763 457.21992981 -0.22700275 C463.48405405 -0.22572309 469.74813285 -0.22767072 476.01224899 -0.23841095 C481.75435581 -0.24818398 487.49638687 -0.24860867 493.23849726 -0.24179779 C495.3087563 -0.2409567 497.37902017 -0.24345924 499.44926977 -0.24976636 C519.18550704 -0.30636618 539.18878088 0.07442122 556 12 C556.66 12.99 557.32 13.98 558 15 C557.484375 14.74089844 556.96875 14.48179687 556.4375 14.21484375 C555.633125 13.81394531 554.82875 13.41304687 554 13 C552.39125 12.19755859 552.39125 12.19755859 550.75 11.37890625 C549.50040515 10.77260177 548.25039322 10.16715627 547 9.5625 C546.40316406 9.26279297 545.80632813 8.96308594 545.19140625 8.65429688 C532.34071965 2.49611962 519.55669673 2.57681951 505.62591553 2.63923645 C503.45003753 2.63792702 501.27415999 2.63529808 499.09828496 2.63146895 C493.13950986 2.62477903 487.18089734 2.6367362 481.22214293 2.65180314 C474.78875607 2.66478073 468.35537808 2.66037282 461.92198181 2.65809631 C450.78242674 2.6560071 439.64292113 2.66581746 428.50337982 2.68280983 C416.82422383 2.70057954 405.14508891 2.71211143 393.46591949 2.71536827 C392.73891231 2.71557449 392.01190513 2.71578071 391.26286742 2.71599318 C387.57055137 2.71700822 383.87823529 2.71791235 380.1859192 2.7187738 C354.05410759 2.7250699 327.92232347 2.74526762 301.79052734 2.77368164 C276.40869289 2.80124829 251.02686596 2.82249259 225.64501953 2.83520508 C224.86221849 2.83559966 224.07941745 2.83599424 223.27289517 2.83640077 C215.4114657 2.84035643 207.55003618 2.84418386 199.6886066 2.84791735 C183.67491132 2.85552536 167.66121654 2.86398912 151.64752197 2.87297058 C150.54317066 2.87358839 150.54317066 2.87358839 149.41650923 2.87421867 C100.27766114 2.90180638 51.13882921 2.94940283 2 3 C2.99 4.485 2.99 4.485 4 6 C2.68 5.34 1.36 4.68 0 4 C0 2.68 0 1.36 0 0 Z " fill="#D2D2D2" transform="translate(769,202)"/>
<path d="M0 0 C1.98 0.99 1.98 0.99 4 2 C4 2.33 4 2.66 4 3 C-73.55 3 -151.1 3 -231 3 C-231 2.67 -231 2.34 -231 2 C-205.16335967 1.84524523 -179.32668802 1.69724524 -153.48996449 1.5570364 C-141.49044104 1.49176497 -129.49093678 1.42437794 -117.49145508 1.35180664 C-107.01873276 1.28847457 -96.54599608 1.22931948 -86.07322329 1.17494446 C-80.54070891 1.14607982 -75.00822216 1.11528414 -69.47574806 1.07946587 C-46.29144852 0.93068581 -23.16349611 0.86695948 0 2 C0 1.34 0 0.68 0 0 Z " fill="#FFFFFF" transform="translate(746,517)"/>
<path d="M0 0 C44.55 0 89.1 0 135 0 C135 0.66 135 1.32 135 2 C91.11 2.33 47.22 2.66 2 3 C2.99 4.485 2.99 4.485 4 6 C2.68 5.34 1.36 4.68 0 4 C0 2.68 0 1.36 0 0 Z " fill="#D9D9D9" transform="translate(769,202)"/>
<path d="M0 0 C1.07801188 -0.00282738 2.15602375 -0.00565475 3.26670265 -0.00856781 C8.94823057 -0.02341181 14.62973397 -0.03273991 20.3112793 -0.03710938 C26.15956533 -0.04263851 32.00762377 -0.06680099 37.85583782 -0.09508133 C42.38117651 -0.11369941 46.90645952 -0.1189124 51.43183327 -0.12044525 C53.58915289 -0.12346339 55.74647173 -0.13146344 57.90375328 -0.14463043 C60.9108692 -0.16170777 63.91741566 -0.15980891 66.92456055 -0.15332031 C67.80618866 -0.1625351 68.68781677 -0.17174988 69.59616089 -0.1812439 C76.20001605 -0.13666601 81.82660039 1.0768055 86.81640625 5.76171875 C87.32171875 6.23029297 87.82703125 6.69886719 88.34765625 7.18164062 C89.09789062 7.90383789 89.09789062 7.90383789 89.86328125 8.640625 C90.37890625 9.11822266 90.89453125 9.59582031 91.42578125 10.08789062 C94.11607272 12.61523918 96.51504299 15.16355382 98.61328125 18.203125 C94.76344903 16.59600164 92.14037848 14.0972915 89.11328125 11.265625 C82.89205338 4.87902336 82.89205338 4.87902336 74.6953125 2.82217407 C73.21115089 2.80948486 73.21115089 2.80948486 71.69700623 2.79653931 C70.61750198 2.802612 69.53799774 2.80868469 68.42578125 2.81494141 C67.28379776 2.80968445 66.14181427 2.80442749 64.96522522 2.79901123 C61.1811056 2.78578431 57.39740535 2.79456389 53.61328125 2.8046875 C50.97973551 2.80266643 48.34619031 2.79975472 45.71264648 2.79598999 C40.18452417 2.79053067 34.65652202 2.79772217 29.12841797 2.81201172 C22.76418528 2.82827411 16.40024191 2.82309752 10.03601646 2.8065325 C3.89254347 2.79118932 -2.25080284 2.79292876 -8.39428711 2.8016777 C-10.99682659 2.8036709 -13.5993735 2.80125158 -16.2019043 2.79423904 C-19.85615081 2.78655899 -23.50985593 2.79832378 -27.1640625 2.81494141 C-28.22737289 2.80886871 -29.29068329 2.80279602 -30.38621521 2.79653931 C-36.77964145 2.84998301 -42.44838539 3.72664699 -48.60548401 5.46286583 C-51.51694092 6.2377852 -54.40986696 6.74933406 -57.38671875 7.203125 C-51.76709147 1.58349772 -40.96964201 0.92702081 -33.34838867 0.59472656 C-32.19508072 0.53811796 -32.19508072 0.53811796 -31.01847363 0.48036575 C-20.68470043 0.02060972 -10.34203284 0.01854687 0 0 Z " fill="#DBDBDB" transform="translate(467.38671875,201.796875)"/>
<path d="M0 0 C1.81880287 3.1168314 2.24161526 5.34392123 2.2068634 8.93574524 C2.20238693 9.92926498 2.19791046 10.92278473 2.19329834 11.94641113 C2.17825256 13.03055298 2.16320679 14.11469482 2.14770508 15.23168945 C2.13996567 16.37860764 2.13222626 17.52552582 2.12425232 18.7071991 C2.10658598 21.20081676 2.08452981 23.69440626 2.0586338 26.18795204 C2.01921377 30.14515142 1.99432973 34.10228194 1.97502136 38.05961609 C1.91756748 49.31281782 1.84060625 60.56576918 1.73266602 71.81860352 C1.67319927 78.03483433 1.63227418 84.25091812 1.6108982 90.4673993 C1.5987625 93.74955256 1.57431765 97.0308728 1.53248024 100.31279945 C1.31682286 117.48139331 1.72379627 131.49997916 11.1796875 146.36328125 C11.45039063 146.90339844 11.72109375 147.44351563 12 148 C11.505 148.99 11.505 148.99 11 150 C10.09587887 148.56769815 9.20233583 147.12872025 8.3125 145.6875 C7.81363281 144.88699219 7.31476563 144.08648438 6.80078125 143.26171875 C1.60060006 133.84273547 -0.73476507 126.75696832 -0.56762695 115.90942383 C-0.56835709 114.64960693 -0.56908722 113.38979004 -0.56983948 112.09179688 C-0.57126077 108.67276839 -0.54208397 105.25463592 -0.50696969 101.83581376 C-0.47548811 98.24977684 -0.47275844 94.66371422 -0.46684265 91.07756042 C-0.45136763 84.30265636 -0.41042647 77.52816082 -0.3600952 70.75343579 C-0.30400271 63.03391757 -0.2766655 55.31437876 -0.25161803 47.59470713 C-0.19950383 31.72956904 -0.11168688 15.86483742 0 0 Z " fill="#414141" transform="translate(369,521)"/>
<path d="M0 0 C14.11690078 6.16600264 24.4395182 22.35025168 30.25 35.9375 C37.35812222 55.27036691 37.0402935 75.61325771 28.75 94.5625 C28.1725 95.696875 27.595 96.83125 27 98 C25.79375926 94.38127777 26.29764232 93.74729802 27.8125 90.375 C31.48156207 82.18915033 32.36631129 74.20774001 32.3125 65.3125 C32.30758545 64.34715332 32.3026709 63.38180664 32.29760742 62.38720703 C31.96120659 41.73737125 24.16245678 24.12658742 9.75 9.4375 C6.62112543 6.47397246 3.32290928 3.74140016 0 1 C0 0.67 0 0.34 0 0 Z " fill="#E0E0E0" transform="translate(1225,388)"/>
<path d="M0 0 C0.33 0 0.66 0 1 0 C1 39.6 1 79.2 1 120 C0.67 120 0.34 120 0 120 C-0.04898437 119.40832031 -0.09796875 118.81664062 -0.1484375 118.20703125 C-0.5720819 113.72954816 -1.30578199 110.1790711 -3 106 C-3.1875 102.75 -3.1875 102.75 -3 100 C-2.505 99.505 -2.505 99.505 -2 99 C-1.08899514 93.22629837 -0.83553875 87.57518687 -0.79467773 81.73828125 C-0.78477814 80.84953812 -0.77487854 79.96079498 -0.76467896 79.04512024 C-0.7333224 76.13427307 -0.70840973 73.22340964 -0.68359375 70.3125 C-0.66300185 68.28368732 -0.64200482 66.25487871 -0.62062073 64.22607422 C-0.56563087 58.90626339 -0.5161205 53.58641532 -0.46777344 48.26654053 C-0.41738905 42.83000404 -0.3617917 37.3935211 -0.30664062 31.95703125 C-0.19934174 21.30473333 -0.09783489 10.65238876 0 0 Z " fill="#FAFAFA" transform="translate(368,520)"/>
<path d="M0 0 C26.07 0 52.14 0 79 0 C79 0.33 79 0.66 79 1 C53.3438901 2.08661993 27.67307094 2.52034632 2 3 C2.99 4.485 2.99 4.485 4 6 C2.68 5.34 1.36 4.68 0 4 C0 2.68 0 1.36 0 0 Z " fill="#E7E7E7" transform="translate(769,202)"/>
<path d="M0 0 C1.33333333 0.66666667 2.66666667 1.33333333 4 2 C5.546875 2.7115625 5.546875 2.7115625 7.125 3.4375 C10 5 10 5 12 8 C11.67 9.32 11.34 10.64 11 12 C-7.81 12 -26.62 12 -46 12 C-46 11.67 -46 11.34 -46 11 C-27.85 10.34 -9.7 9.68 9 9 C6.03 6.36 3.06 3.72 0 1 C0 0.67 0 0.34 0 0 Z " fill="#D1D0D1" transform="translate(737,368)"/>
<path d="M0 0 C0.66 1.32 1.32 2.64 2 4 C1.071875 4.3403125 1.071875 4.3403125 0.125 4.6875 C-2.19631689 5.82358575 -2.19631689 5.82358575 -2.86328125 8.26953125 C-4.20431586 11.49077933 -5.94154154 13.44972535 -8.3125 16 C-9.11171875 16.86753906 -9.9109375 17.73507812 -10.734375 18.62890625 C-12.47391228 20.44942199 -14.23395113 22.20878569 -16.0625 23.9375 C-18.34233773 25.89278939 -18.34233773 25.89278939 -18 29 C-18.99 29.33 -19.98 29.66 -21 30 C-21.33 30.66 -21.66 31.32 -22 32 C-23.95029679 32.49583817 -25.90276704 32.98533712 -27.8671875 33.421875 C-30.26984803 33.99492001 -30.26984803 33.99492001 -33.3125 35.6875 C-36 37 -36 37 -39 36 C-38.05640625 35.55011719 -37.1128125 35.10023438 -36.140625 34.63671875 C-26.67967732 29.96010582 -19.34242842 24.55871701 -12 17 C-11.38511719 16.3709375 -10.77023437 15.741875 -10.13671875 15.09375 C-6.00136104 10.56302218 -3.01637726 5.31609751 0 0 Z " fill="#DBDBDB" transform="translate(1250,486)"/>
<path d="M0 0 C2 0 2 0 4 1.9375 C4.66128906 2.62392578 4.66128906 2.62392578 5.3359375 3.32421875 C10.69931905 8.72537059 16.52239888 13.65633815 22.4375 18.4375 C28.170343 23.07291305 33.59362514 27.99099892 39 33 C36 33 36 33 34 32 C34 31.34 34 30.68 34 30 C33.278125 29.773125 32.55625 29.54625 31.8125 29.3125 C29.12649434 28.05903069 27.6016942 26.78270153 25.6015625 24.640625 C21.93798113 20.88768799 17.91382304 17.48824228 14 14 C13.01 14.495 13.01 14.495 12 15 C11.79375 14.2575 11.5875 13.515 11.375 12.75 C9.60854521 9.21709041 7.29070291 8.07457358 4 6 C4 5.34 4 4.68 4 4 C3.01 3.67 2.02 3.34 1 3 C0.67 2.01 0.34 1.02 0 0 Z " fill="#EEEEEE" transform="translate(1011,414)"/>
<path d="M0 0 C3.86243448 1.59793389 6.58214575 4.22150961 9.5625 7.0625 C13.45783782 10.7092628 17.40210162 14.21505303 21.5625 17.5625 C29.09121572 23.63123323 36.1997383 30.12661721 43 37 C38.89715986 35.62267001 36.33157616 33.76356341 33.1875 30.8125 C32.31480469 30.00425781 31.44210937 29.19601562 30.54296875 28.36328125 C29.70378906 27.58339844 28.86460937 26.80351562 28 26 C26.67210304 24.82714939 25.33920597 23.65992079 24 22.5 C20.1655924 19.15836768 16.38285968 15.76176139 12.609375 12.3515625 C10.79271099 10.71438925 8.96926172 9.08472694 7.140625 7.4609375 C6.22796875 6.64882813 5.3153125 5.83671875 4.375 5 C3.53710938 4.2575 2.69921875 3.515 1.8359375 2.75 C1.23007812 2.1725 0.62421875 1.595 0 1 C0 0.67 0 0.34 0 0 Z " fill="#E8E8E8" transform="translate(839,265)"/>
<path d="M0 0 C11.2848068 3.90477744 18.31925063 16.23337779 23.3125 26.4375 C25.87765941 32.19713794 27.27362024 37.75062927 28 44 C27.34 44 26.68 44 26 44 C25.87625 43.3915625 25.7525 42.783125 25.625 42.15625 C21.96069753 26.58296452 13.90030635 12.47425492 1.50390625 2.3125 C1.00761719 1.879375 0.51132813 1.44625 0 1 C0 0.67 0 0.34 0 0 Z " fill="#EFEFEF" transform="translate(1327,217)"/>
<path d="M0 0 C4.03166743 1.67740908 7.06961817 4.46782698 10.3125 7.3125 C10.91626465 7.837229 11.5200293 8.36195801 12.14208984 8.90258789 C13.42844727 10.02059209 14.71356978 11.1400185 15.99755859 12.26074219 C18.02569882 14.02232119 20.06736885 15.76691998 22.11328125 17.5078125 C23.45055862 18.65099747 24.7877992 19.79422547 26.125 20.9375 C26.75188721 21.46835205 27.37877441 21.9992041 28.0246582 22.54614258 C31.41740512 25.46284397 34.32136073 28.38183801 37 32 C33.32043709 30.43767979 30.83484207 28.16415918 27.9375 25.4375 C24.22521409 21.98537429 20.45183862 18.68074816 16.5 15.5 C10.80224276 10.89575172 5.24752381 6.11557447 0 1 C0 0.67 0 0.34 0 0 Z " fill="#E7E7E7" transform="translate(655,297)"/>
<path d="M0 0 C0.66 0.33 1.32 0.66 2 1 C-4.89270509 7.47629365 -11.82995249 13.76529374 -19.2109375 19.6875 C-24.32031021 23.92384264 -29.149956 28.47159941 -34 33 C-34.66 32.67 -35.32 32.34 -36 32 C-28.61084922 24.40302935 -20.66218971 17.66681595 -12.41796875 11.015625 C-10.49201342 9.41014366 -8.75103135 7.78507918 -7 6 C-5.78034287 4.92659726 -4.55102426 3.8640772 -3.3125 2.8125 C-2.68988281 2.28269531 -2.06726562 1.75289063 -1.42578125 1.20703125 C-0.95527344 0.80871094 -0.48476562 0.41039062 0 0 Z " fill="#E7E7E7" transform="translate(1044,456)"/>
<path d="M0 0 C3.86225817 1.59786094 6.58258777 4.22114327 9.5625 7.0625 C14.44056553 11.63942235 19.46022088 15.89312507 24.72265625 20.02734375 C26.85639879 21.8756113 28.41461896 23.67650713 30 26 C28.68 25.67 27.36 25.34 26 25 C26 24.34 26 23.68 26 23 C25.43796875 22.75636719 24.8759375 22.51273437 24.296875 22.26171875 C21.55980215 20.75819064 19.54204059 18.93300252 17.25 16.8125 C14.08350817 13.90287698 10.89816722 11.03893462 7.625 8.25 C4.72135818 5.72841631 2.2716571 3.12352851 0 0 Z " fill="#E8E8E8" transform="translate(959,369)"/>
<path d="M0 0 C-0.33 1.65 -0.66 3.3 -1 5 C-1.66 5 -2.32 5 -3 5 C-3.66 6.65 -4.32 8.3 -5 10 C-5.86625 9.62875 -5.86625 9.62875 -6.75 9.25 C-7.4925 9.1675 -8.235 9.085 -9 9 C-11.27144074 10.85432087 -11.27144074 10.85432087 -13 13 C-13.66 12.67 -14.32 12.34 -15 12 C-3.31123919 0 -3.31123919 0 0 0 Z " fill="#8F8F8F" transform="translate(947,542)"/>
<path d="M0 0 C0.33 0 0.66 0 1 0 C1.20753906 0.92039062 1.41507812 1.84078125 1.62890625 2.7890625 C3.70671045 11.32631658 6.48301436 18.56178908 10.70703125 26.26953125 C11.13371094 27.17058594 11.56039063 28.07164062 12 29 C11.67 29.66 11.34 30.32 11 31 C-1.14754416 11.75595238 -1.14754416 11.75595238 0 0 Z " fill="#E5E5E5" transform="translate(369,640)"/>
<path d="M0 0 C0.66 0.33 1.32 0.66 2 1 C1.19175781 1.59167969 0.38351562 2.18335938 -0.44921875 2.79296875 C-1.52880822 3.59092618 -2.60822616 4.38911572 -3.6875 5.1875 C-4.74324219 5.96480469 -5.79898437 6.74210938 -6.88671875 7.54296875 C-10.74499041 10.58795354 -14.11320078 13.49926286 -16.625 17.75 C-18 20 -18 20 -21 21 C-17.88521209 11.45138787 -8.32136322 4.94457815 0 0 Z " fill="#D6D6D6" transform="translate(402,212)"/>
<path d="M0 0 C8.13134245 3.55162084 15.94411244 11.77951226 21 19 C21.68359375 21.23046875 21.68359375 21.23046875 22 23 C18.73169539 19.83712457 15.69487875 16.53821879 12.6875 13.125 C9.16873709 9.17524768 5.50471809 5.65010758 1.43359375 2.27734375 C0.96050781 1.85582031 0.48742188 1.43429687 0 1 C0 0.67 0 0.34 0 0 Z " fill="#ECECEC" transform="translate(1225,388)"/>
<path d="M0 0 C3.9786023 1.62761003 6.80309944 4.39922402 9.875 7.3125 C13.81512077 11.01581044 17.81641973 14.57196184 22 18 C17.73104699 18 15.73505489 15.50721652 12.6875 12.8125 C11.56657652 11.83964753 10.44548358 10.86699027 9.32421875 9.89453125 C8.77685059 9.41322754 8.22948242 8.93192383 7.66552734 8.43603516 C6.00225843 7.00194724 4.29701851 5.63320489 2.58203125 4.26171875 C1.72996094 3.51535156 0.87789062 2.76898438 0 2 C0 1.34 0 0.68 0 0 Z " fill="#ECECEC" transform="translate(937,350)"/>
<path d="M0 0 C0.66 0.33 1.32 0.66 2 1 C1.4375 3.875 1.4375 3.875 0 7 C-2.31074405 7.74118205 -4.64811553 8.40206327 -7 9 C-9.8979062 11.47859029 -9.8979062 11.47859029 -12 14 C-12.66 13.67 -13.32 13.34 -14 13 C-9.51286432 8.4103663 -5.01431776 4.01145421 0 0 Z " fill="#A5A5A5" transform="translate(923,561)"/>
<path d="M0 0 C0.66 0.33 1.32 0.66 2 1 C-10.31701161 13.77132761 -10.31701161 13.77132761 -16 17 C-16.99 17 -17.98 17 -19 17 C-16.96004487 15.10229694 -14.91810165 13.20681055 -12.875 11.3125 C-12.02035156 10.51682617 -12.02035156 10.51682617 -11.1484375 9.70507812 C-7.52351755 6.34790794 -3.82221468 3.13096309 0 0 Z " fill="#EBEBEB" transform="translate(723,543)"/>
<path d="M0 0 C2.96325944 1.35108966 5.20785165 2.88706648 7.625 5.0625 C8.30820312 5.67351562 8.99140625 6.28453125 9.6953125 6.9140625 C10.45585938 7.60242188 11.21640625 8.29078125 12 9 C12.90492188 9.81210938 13.80984375 10.62421875 14.7421875 11.4609375 C17.16503746 13.63669794 19.58397556 15.81666644 22 18 C17.8022875 18 16.1125675 15.6353964 13.25 12.875 C12.17795057 11.86366324 11.10503768 10.85324097 10.03125 9.84375 C9.51304687 9.35390625 8.99484375 8.8640625 8.4609375 8.359375 C6.6082448 6.63547912 4.69127347 4.99803192 2.75 3.375 C1.8425 2.59125 0.935 1.8075 0 1 C0 0.67 0 0.34 0 0 Z " fill="#ECECEC" transform="translate(573,226)"/>
<path d="M0 0 C0.33 0.66 0.66 1.32 1 2 C0.25234375 2.60328125 -0.4953125 3.2065625 -1.265625 3.828125 C-2.25046875 4.62734375 -3.2353125 5.4265625 -4.25 6.25 C-5.22453125 7.03890625 -6.1990625 7.8278125 -7.203125 8.640625 C-9.60247544 10.66465805 -11.82411437 12.74122349 -14 15 C-14.66 14.67 -15.32 14.34 -16 14 C-14.73046875 12.50260417 -13.4609375 11.00520833 -12.19140625 9.5078125 C-10.9121848 7.99405921 -10.9121848 7.99405921 -10 6 C-9.34 6.33 -8.68 6.66 -8 7 C-8 6.01 -8 5.02 -8 4 C-7.236875 3.71125 -6.47375 3.4225 -5.6875 3.125 C-2.84970692 2.03730987 -2.84970692 2.03730987 0 0 Z " fill="#B7B7B7" transform="translate(608,643)"/>
<path d="M0 0 C-2.99332669 3.74165836 -5.48037386 4.57198068 -9.97265625 5.4921875 C-12.29065188 5.99243065 -12.29065188 5.99243065 -15.3125 7.6875 C-18 9 -18 9 -21 8 C-18.93930083 6.87159372 -16.87656904 5.74721229 -14.8125 4.625 C-13.66394531 3.99851562 -12.51539063 3.37203125 -11.33203125 2.7265625 C-3.69389628 -1.23129876 -3.69389628 -1.23129876 0 0 Z " fill="#9D9D9D" transform="translate(1232,514)"/>
<path d="M0 0 C4.50419983 0.85409827 7.03017333 3.47747469 10.25 6.5625 C10.80429688 7.08263672 11.35859375 7.60277344 11.9296875 8.13867188 C13.29256828 9.41930985 14.64711683 10.7088049 16 12 C13 12 13 12 11 11 C11 10.34 11 9.68 11 9 C10.278125 8.773125 9.55625 8.54625 8.8125 8.3125 C4.9201137 6.49605306 1.93862514 3.87725027 0 0 Z " fill="#E7E7E7" transform="translate(1034,435)"/>
<path d="M0 0 C0.66 0.33 1.32 0.66 2 1 C-2.95 5.62 -7.9 10.24 -13 15 C-13.66 14.67 -14.32 14.34 -15 14 C-10.88565171 8.73238741 -6.43104287 4.86265102 -1 1 C-0.67 0.67 -0.34 0.34 0 0 Z " fill="#E5E5E5" transform="translate(902,579)"/>
<path d="M0 0 C4.68904588 1.42300113 7.51610475 4.15696334 10.8125 7.625 C11.31458984 8.140625 11.81667969 8.65625 12.33398438 9.1875 C13.56296227 10.45159154 14.78246001 11.72488806 16 13 C12.55254353 13 12.25874198 12.65820401 9.86328125 10.41015625 C9.28642578 9.87326172 8.70957031 9.33636719 8.11523438 8.78320312 C7.52033203 8.21537109 6.92542969 7.64753906 6.3125 7.0625 C5.70599609 6.49853516 5.09949219 5.93457031 4.47460938 5.35351562 C2.95776986 3.9288126 1.47569682 2.46727629 0 1 C0 0.67 0 0.34 0 0 Z " fill="#ECECEC" transform="translate(550,206)"/>
<path d="M0 0 C6.31692924 3.46811801 11.52899976 6.42336797 15 13 C11.28570797 11.37278635 8.38358949 9.05329514 5.25 6.5 C4.26515625 5.7059375 3.2803125 4.911875 2.265625 4.09375 C1.51796875 3.4028125 0.7703125 2.711875 0 2 C0 1.34 0 0.68 0 0 Z " fill="#E8E8E8" transform="translate(692,329)"/>
<path d="M0 0 C3.89917968 1.61537444 6.71293772 4.27924873 9.75 7.125 C10.25660156 7.59292969 10.76320313 8.06085938 11.28515625 8.54296875 C12.52719141 9.69126541 13.76411494 10.84508672 15 12 C14.01 12.495 14.01 12.495 13 13 C8.18876004 8.96476648 3.86757281 4.95532767 0 0 Z " fill="#E9E9E9" transform="translate(899,317)"/>
<path d="M0 0 C1.33333333 0.66666667 2.66666667 1.33333333 4 2 C5.546875 2.7115625 5.546875 2.7115625 7.125 3.4375 C10 5 10 5 12 8 C11.67 8.99 11.34 9.98 11 11 C9.16365304 9.35742342 7.3308593 7.71117305 5.5 6.0625 C4.97535156 5.59392578 4.45070313 5.12535156 3.91015625 4.64257812 C2.5878256 3.44904592 1.29166061 2.22665821 0 1 C0 0.67 0 0.34 0 0 Z " fill="#F0F0F0" transform="translate(737,368)"/>
<path d="M0 0 C0.66 0.33 1.32 0.66 2 1 C0.61392377 2.46761013 -0.78431195 3.92374189 -2.1875 5.375 C-2.96480469 6.18710937 -3.74210938 6.99921875 -4.54296875 7.8359375 C-6.987055 9.98859852 -8.92616557 11.00632706 -12 12 C-8.39424999 7.41086363 -4.52615993 3.67832017 0 0 Z " fill="#E7E7E7" transform="translate(694,568)"/>
<path d="M0 0 C0.66 0.33 1.32 0.66 2 1 C-5.29840547 8.48291572 -5.29840547 8.48291572 -9 11 C-9.66 10.67 -10.32 10.34 -11 10 C-5.555 5.05 -5.555 5.05 0 0 Z " fill="#E1E1E1" transform="translate(575,671)"/>
<path d="M0 0 C0.66 0.33 1.32 0.66 2 1 C-1.56430755 4.14985318 -4.40693504 6.5140084 -9 8 C-8.34 6.02 -7.68 4.04 -7 2 C-6.21625 2.04125 -5.4325 2.0825 -4.625 2.125 C-1.83883881 2.28728734 -1.83883881 2.28728734 0 0 Z " fill="#868686" transform="translate(701,562)"/>
<path d="M0 0 C3.47775179 1.51553404 5.9557984 3.5773456 8.75 6.125 C9.94882812 7.21167969 9.94882812 7.21167969 11.171875 8.3203125 C11.77515625 8.87460938 12.3784375 9.42890625 13 10 C9.28115772 10 8.63852271 9.1259934 5.9375 6.6875 C5.24527344 6.07261719 4.55304687 5.45773438 3.83984375 4.82421875 C2 3 2 3 0 0 Z " fill="#E5E5E5" transform="translate(795,227)"/>
<path d="M0 0 C0 3.5747073 -0.55352838 4.46916729 -3 7 C-5.6875 7.75 -5.6875 7.75 -8 8 C-5.58443874 4.80800833 -3.31996462 2.25283313 0 0 Z " fill="#ECECEC" transform="translate(750,520)"/>
<path d="M0 0 C0.99 0.33 1.98 0.66 3 1 C2.01 1.495 2.01 1.495 1 2 C1 3.32 1 4.64 1 6 C0.01 6.33 -0.98 6.66 -2 7 C-2 6.34 -2 5.68 -2 5 C-2.66 4.67 -3.32 4.34 -4 4 C-2.68 2.68 -1.36 1.36 0 0 Z " fill="#838383" transform="translate(407,209)"/>
<path d="M0 0 C0.99 0.99 1.98 1.98 3 3 C1.68 4.32 0.36 5.64 -1 7 C-1.66 6.67 -2.32 6.34 -3 6 C-2.34 5.34 -1.68 4.68 -1 4 C-1.33 3.01 -1.66 2.02 -2 1 C-1.34 0.67 -0.68 0.34 0 0 Z " fill="#888888" transform="translate(546,693)"/>
<path d="M0 0 C0.99 0.33 1.98 0.66 3 1 C1.70700306 3.88437779 0.34058637 5.87219421 -2 8 C-2.66 7.67 -3.32 7.34 -4 7 C-3.525625 6.5875 -3.05125 6.175 -2.5625 5.75 C-0.83733482 3.817815 -0.43415125 2.51807725 0 0 Z " fill="#E0E0E0" transform="translate(1050,448)"/>
<path d="M0 0 C3.7952131 1.49097658 5.61042731 3.75700849 8 7 C6.68 7 5.36 7 4 7 C2.39662274 4.74339496 1.23417783 2.46835565 0 0 Z " fill="#BFBFBF" transform="translate(604,253)"/>
<path d="M0 0 C4 1 4 1 4 1 Z " fill="#FDFDFD" transform="translate(735,382)"/>
</svg>
